# xmcd
#
# Track frame offsets: 
#        150
#        11961
#        22236
#        33255
#
# Disc length: 597 seconds
#
# Revision: 0
# Processed by: cddbd v1.5.2PL0 Copyright (c) Steve Scherf et al.
# Submitted via: ExactAudioCopy v0.95b4
#
DISCID=2d025304
DTITLE=Houston Wells - Just For You (The Joe Meek EP Collection)
DYEAR=2007
DGENRE=Country
TTITLE0=This Song Is Just For You
TTITLE1=Paradise
TTITLE2=Shutters And Boards
TTITLE3=North Wind
EXTD=
EXTT0=
EXTT1=
EXTT2=
EXTT3=
PLAYORDER=
